<svg width="24" height="24" viewBox="0 0 24 24" fill="none" xmlns="http://www.w3.org/2000/svg">
<path d="M10 8.24995H1M10 2.99995L1 2.99995M19 13.75H1M19 19H1M17.72 1.95995L13.8533 4.85995C13.5638 5.07707 13.4191 5.18563 13.3673 5.31872C13.322 5.43529 13.322 5.56462 13.3673 5.68119C13.4191 5.81427 13.5638 5.92283 13.8533 6.13995L17.72 9.03995C18.132 9.34894 18.338 9.50343 18.5104 9.49985C18.6604 9.49673 18.8012 9.42637 18.8937 9.3082C19 9.17241 19 8.91493 19 8.39995V2.59995C19 2.08498 19 1.82749 18.8937 1.6917C18.8012 1.57354 18.6604 1.50318 18.5104 1.50006C18.338 1.49648 18.132 1.65097 17.72 1.95995Z" stroke="#28303F" stroke-width="2" stroke-linecap="round" stroke-linejoin="round"/>
</svg>
