<svg width="20" height="20" viewBox="0 0 20 20" fill="none" xmlns="http://www.w3.org/2000/svg">
<g clip-path="url(#clip0_306_2100)">
<path fill-rule="evenodd" clip-rule="evenodd" d="M11.4286 6.42829C11.4286 7.56493 10.977 8.65502 10.1733 9.45875C9.36959 10.2625 8.2795 10.714 7.14286 10.714C6.00622 10.714 4.91613 10.2625 4.1124 9.45875C3.30867 8.65502 2.85714 7.56493 2.85714 6.42829C2.85714 5.29165 3.30867 4.20156 4.1124 3.39783C4.91613 2.59411 6.00622 2.14258 7.14286 2.14258C8.2795 2.14258 9.36959 2.59411 10.1733 3.39783C10.977 4.20156 11.4286 5.29165 11.4286 6.42829ZM7.14286 12.1426C5.24845 12.1426 3.43164 12.8951 2.09209 14.2347C0.752549 15.5742 0 17.391 0 19.2854C0 19.4749 0.0752549 19.6566 0.209209 19.7905C0.343164 19.9245 0.524845 19.9997 0.714286 19.9997H13.5714C13.7609 19.9997 13.9426 19.9245 14.0765 19.7905C14.2105 19.6566 14.2857 19.4749 14.2857 19.2854C14.2857 17.391 13.5332 15.5742 12.1936 14.2347C10.8541 12.8951 9.03726 12.1426 7.14286 12.1426ZM19.2857 19.9997H15.9686C16.0357 19.774 16.0714 19.534 16.0714 19.2854C16.0725 17.9015 15.7514 16.5364 15.1335 15.2981C14.5156 14.0598 13.6179 12.9824 12.5114 12.1511C13.4774 12.1043 14.4428 12.2542 15.3492 12.5916C16.2555 12.929 17.0839 13.4469 17.7841 14.114C18.4843 14.7811 19.0417 15.5834 19.4227 16.4724C19.8036 17.3613 20 18.3183 20 19.2854C20 19.4749 19.9247 19.6566 19.7908 19.7905C19.6568 19.9245 19.4752 19.9997 19.2857 19.9997ZM12.8571 10.714C12.4372 10.7146 12.0194 10.6535 11.6171 10.5326C12.6463 9.41372 13.2164 7.94846 13.2143 6.42829C13.2164 4.90813 12.6463 3.44286 11.6171 2.32401C12.2063 2.14689 12.8268 2.09871 13.4362 2.18274C14.0457 2.26678 14.63 2.48105 15.1493 2.81099C15.6685 3.14094 16.1107 3.57882 16.4457 4.09488C16.7807 4.61093 17.0006 5.19306 17.0906 5.8017C17.1805 6.41033 17.1384 7.03119 16.967 7.62209C16.7956 8.21298 16.499 8.76005 16.0974 9.2261C15.6957 9.69216 15.1985 10.0663 14.6393 10.323C14.0802 10.5798 13.4724 10.7131 12.8571 10.714Z" fill="#01C6B2"/>
</g>
<defs>
<clipPath id="clip0_306_2100">
<rect width="20" height="20" fill="white"/>
</clipPath>
</defs>
</svg>
